<!--
Copyright (c) 2023 valmi.io <https://github.com/valmi-io>
Created Date: Monday, March 20th 2023, 9:48:25 pm
Author: Nagendra S @ valmi.io
-->

<svg xmlns="http://www.w3.org/2000/svg" width="72" height="72"><defs><linearGradient id="a" x1="50%" x2="50%" y1="0%" y2="100%"><stop offset="0%" stop-color="#0AA25A"/><stop offset="100%" stop-color="#05954F"/></linearGradient></defs><g fill="none" fill-rule="evenodd"><rect width="72" height="72" fill="#F2F3F4" rx="4"/><path fill="url(#a)" d="M0 4.007A3.998 3.998 0 0 1 3.998 0H35l15 15v41.007A4 4 0 0 1 45.993 60H4.007A4.008 4.008 0 0 1 0 55.993V4.007z" transform="translate(11 6)"/><path fill="#E6F5EE" d="M19 25h34v26H19V25zm2 2v6h8v-6h-8zm10 0v6h19.994v-6H31zm-10 8v6h8v-6h-8zm10 0v6h19.994v-6H31zm-10 8v6h8v-6h-8zm10 0v6h19.994v-6H31z"/><path fill="#7BCFA9" d="m46 6 15 15H46z"/><path fill="#0D611A" opacity=".417" style="mix-blend-mode:darken" d="m35 15 15 15V15z" transform="translate(11 6)"/></g></svg>